<svg xmlns="http://www.w3.org/2000/svg" version="1.1" xmlns:xlink="http://www.w3.org/1999/xlink" xmlns:svgjs="http://svgjs.com/svgjs" width="1940" height="1000" preserveAspectRatio="none" viewBox="0 0 1940 1000">    <g mask="url(&quot;#SvgjsMask2586&quot;)" fill="none">        <rect width="1940" height="1000" x="0" y="0" fill="url(#SvgjsLinearGradient2587)"></rect>        <path d="M1940.0000000000005 1000L0 1000 L0 712.77Q109.09 660.19, 161.66666666666669 769.28Q221.6 732.21, 258.6666666666667 792.14Q357.19 729, 420.33333333333337 827.52Q474.88 785.07, 517.3333333333334 839.62Q580.68 741.3, 679 804.65Q726.71 690.69, 840.6666666666667 738.4Q912.47 713.2, 937.6666666666667 785Q996.3 746.63, 1034.6666666666667 805.26Q1129.9 738.83, 1196.3333333333335 834.06Q1270.46 746.52, 1358.0000000000002 820.65Q1375.59 741.24, 1455.0000000000002 758.82Q1542.74 684.9, 1616.666666666667 772.64Q1706.79 701.09, 1778.3333333333337 791.21Q1875.21 726.42, 1940.0000000000005 823.3z" fill="rgba(163, 159, 255, 1)"></path>        <path d="M1972.333333333334 1000L0 1000 L0 913.21Q60.73 876.94, 97 937.67Q121.27 864.94, 194 889.21Q253.89 852.11, 291 912Q293.16 817.16, 388 819.32Q431.02 765.34, 485 808.36Q611.52 773.21, 646.6666666666667 899.73Q713.14 804.53, 808.3333333333335 871Q875.1 776.1, 970.0000000000002 842.86Q1057.58 833.43, 1067.0000000000002 921.01Q1116.56 808.9, 1228.666666666667 858.46Q1317.02 785.14, 1390.3333333333337 873.49Q1487.45 808.94, 1552.0000000000005 906.06Q1583.96 776.36, 1713.6666666666672 808.32Q1776.44 774.09, 1810.6666666666672 836.86Q1901.16 765.68, 1972.333333333334 856.17z" fill="rgba(255, 208, 233, 1)"></path>        <path d="M1940.0000000000005 1000L0 1000 L0 1003.38Q41.54 883.25, 161.66666666666669 924.79Q276.55 878.01, 323.33333333333337 992.89Q426.59 934.48, 485.00000000000006 1037.73Q538.01 929.07, 646.6666666666667 982.08Q717.12 955.53, 743.6666666666667 1025.98Q812.97 933.62, 905.3333333333335 1002.92Q928.45 929.03, 1002.3333333333335 952.15Q1068.79 856.94, 1164.0000000000002 923.4Q1268.42 866.15, 1325.666666666667 970.57Q1389.37 937.27, 1422.666666666667 1000.97Q1456.96 873.6, 1584.3333333333337 907.89Q1638.34 864.9, 1681.3333333333337 918.91Q1778.75 919.33, 1778.3333333333337 1016.74Q1853.42 930.16, 1940.0000000000005 1005.24z" fill="rgba(255, 239, 189, 1)"></path>    </g>    <defs>        <mask id="SvgjsMask2586">            <rect width="1940" height="1000" fill="#ffffff"></rect>        </mask>        <linearGradient x1="50%" y1="0%" x2="50%" y2="100%" gradientUnits="userSpaceOnUse" id="SvgjsLinearGradient2587">            <stop stop-color="rgba(19, 131, 204, 1)" offset="0.64"></stop>            <stop stop-color="rgba(2, 65, 109, 1)" offset="1"></stop>        </linearGradient>    </defs></svg>