<svg xmlns="http://www.w3.org/2000/svg" version="1.1" xmlns:xlink="http://www.w3.org/1999/xlink" xmlns:svgjs="http://svgjs.com/svgjs" width="1440" height="560" preserveAspectRatio="none" viewBox="0 0 1440 560">
    <g mask="url(&quot;#SvgjsMask8677&quot;)" fill="none">
        <rect width="1440" height="560" x="0" y="0" fill="url(#SvgjsLinearGradient8678)"></rect>
        <path d="M1560 560L0 560 L0 409.39Q23.81 361.2, 72 385.01Q91.89 332.9, 144 352.79Q228.31 317.1, 264 401.4Q312.71 330.11, 384 378.82Q462.94 337.76, 504 416.71Q533.34 374.05, 576 403.39Q609.4 316.79, 696 350.19Q776.75 310.94, 816 391.68Q867.63 323.31, 936 374.94Q1018.31 337.25, 1056 419.55Q1078.46 370.01, 1128 392.47Q1137.65 330.13, 1200 339.78Q1266.24 286.02, 1320 352.26Q1393.14 305.4, 1440 378.54Q1528.52 347.06, 1560 435.58z" fill="rgba(107, 152, 187, 1)"></path>
        <path d="M1464 560L0 560 L0 511.7Q-6.68 433.01, 72 426.33Q124.46 358.79, 192 411.25Q247 394.25, 264 449.26Q339.88 405.14, 384 481.02Q387.88 412.9, 456 416.78Q521.03 409.81, 528 474.84Q546.88 421.72, 600 440.6Q651.42 372.02, 720 423.44Q811.36 394.8, 840 486.16Q866.64 440.8, 912 467.44Q953.63 389.07, 1032 430.7Q1062.04 388.74, 1104 418.77Q1205.58 400.35, 1224 501.92Q1247.99 405.92, 1344 429.91Q1418.81 384.72, 1464 459.53z" fill="rgba(210, 233, 250, 1)"></path>
        <path d="M1464 560L0 560 L0 542.3Q63.73 486.03, 120 549.76Q172.61 530.37, 192 582.98Q226.26 497.25, 312 531.51Q364.68 512.19, 384 564.88Q416.58 477.46, 504 510.04Q547.85 481.89, 576 525.74Q643.74 521.48, 648 589.22Q670.1 539.32, 720 561.42Q751.54 472.96, 840 504.51Q916.09 460.6, 960 536.69Q1017.6 522.29, 1032 579.89Q1050 477.89, 1152 495.89Q1227.14 451.03, 1272 526.17Q1343.11 477.27, 1392 548.38Q1410.45 494.84, 1464 513.29z" fill="rgba(255, 255, 255, 1)"></path>
    </g>
    <defs>
        <mask id="SvgjsMask8677">
            <rect width="1440" height="560" fill="#ffffff"></rect>
        </mask>
        <linearGradient x1="50%" y1="0%" x2="50%" y2="100%" gradientUnits="userSpaceOnUse" id="SvgjsLinearGradient8678">
            <stop stop-color="rgba(170, 200, 224, 1)" offset="0.54"></stop>
            <stop stop-color="rgba(133, 147, 159, 1)" offset="0.79"></stop>
        </linearGradient>
    </defs>
</svg>