<svg xmlns="http://www.w3.org/2000/svg" version="1.1" xmlns:xlink="http://www.w3.org/1999/xlink" xmlns:svgjs="http://svgjs.com/svgjs" width="1440" height="560" preserveAspectRatio="none" viewBox="0 0 1440 560">
    <g mask="url(&quot;#SvgjsMask1871&quot;)" fill="none">
        <rect width="1440" height="560" x="0" y="0" fill="url(#SvgjsLinearGradient1872)"></rect>
        <path d="M1464 560L0 560 L0 373.27Q21.68 322.94, 72 344.62Q163.19 315.81, 192 407.01Q210.97 353.98, 264 372.95Q283.04 319.99, 336 339.03Q402.62 285.65, 456 352.27Q533.41 309.69, 576 387.1Q612.85 303.95, 696 340.8Q773 297.8, 816 374.79Q883.23 322.02, 936 389.25Q952.93 334.18, 1008 351.11Q1055.84 326.94, 1080 374.78Q1146.72 321.5, 1200 388.23Q1210.68 326.92, 1272 337.6Q1317.32 310.92, 1344 356.23Q1423.55 315.78, 1464 395.34z" fill="rgba(31, 41, 81, 1)"></path>
        <path d="M1488 560L0 560 L0 438.39Q51.61 418, 72 469.6Q151.11 428.71, 192 507.82Q213.21 409.03, 312 430.25Q338.63 384.88, 384 411.52Q464.96 420.48, 456 501.43Q498.83 472.26, 528 515.1Q556.74 423.84, 648 452.57Q726.36 410.92, 768 489.28Q798.82 448.1, 840 478.92Q916.87 435.79, 960 512.66Q985.74 466.39, 1032 492.13Q1052.03 440.16, 1104 460.19Q1148.13 432.32, 1176 476.46Q1255.01 435.47, 1296 514.47Q1323.87 422.34, 1416 450.2Q1441.68 403.88, 1488 429.57z" fill="rgba(69, 107, 132, 1)"></path>
        <path d="M1464 560L0 560 L0 581.89Q31.83 541.72, 72 573.56Q108.24 489.79, 192 526.03Q246.15 460.18, 312 514.34Q409.68 492.02, 432 589.7Q458.92 544.63, 504 571.55Q536.91 484.46, 624 517.37Q677.06 450.44, 744 503.5Q797.14 484.64, 816 537.78Q864.78 466.56, 936 515.34Q981.62 440.96, 1056 486.58Q1114.5 473.08, 1128 531.57Q1170.34 501.91, 1200 544.26Q1278.13 502.39, 1320 580.53Q1329.53 518.06, 1392 527.59Q1421.22 484.81, 1464 514.03z" fill="rgba(194, 190, 190, 1)"></path>
    </g>
    <defs>
        <mask id="SvgjsMask1871">
            <rect width="1440" height="560" fill="#ffffff"></rect>
        </mask>
        <linearGradient x1="50%" y1="100%" x2="50%" y2="0%" gradientUnits="userSpaceOnUse" id="SvgjsLinearGradient1872">
            <stop stop-color="rgba(43, 81, 121, 1)" offset="0.23"></stop>
            <stop stop-color="rgba(0, 0, 0, 1)" offset="1"></stop>
        </linearGradient>
    </defs>
</svg>