<svg xmlns="http://www.w3.org/2000/svg" version="1.1" xmlns:xlink="http://www.w3.org/1999/xlink" xmlns:svgjs="http://svgjs.com/svgjs" width="1440" height="560" preserveAspectRatio="none" viewBox="0 0 1440 560">
    <g mask="url(&quot;#SvgjsMask1834&quot;)" fill="none">
        <rect width="1440" height="560" x="0" y="0" fill="url(#SvgjsLinearGradient1835)"></rect>
        <path d="M1536 560L0 560 L0 405.7Q29.28 362.98, 72 392.26Q113.31 313.57, 192 354.89Q218.8 309.69, 264 336.49Q325.51 326, 336 387.51Q382.88 362.39, 408 409.27Q431.53 312.8, 528 336.34Q570.14 306.48, 600 348.62Q699.52 328.14, 720 427.66Q769.01 356.68, 840 405.69Q866.89 360.59, 912 387.48Q990.6 346.08, 1032 424.67Q1041.91 362.59, 1104 372.5Q1154.5 303, 1224 353.5Q1308.75 318.25, 1344 403Q1391.58 378.58, 1416 426.16Q1435.96 326.12, 1536 346.08z" fill="rgba(0, 14, 71, 1)"></path>
        <path d="M1560 560L0 560 L0 454.19Q38.55 420.75, 72 459.3Q124.24 439.54, 144 491.78Q174.7 450.48, 216 481.18Q223.68 416.86, 288 424.54Q356.62 373.16, 408 441.78Q454.39 416.17, 480 462.56Q561.07 423.63, 600 504.7Q651.07 435.77, 720 486.84Q733.83 428.67, 792 442.5Q844.53 375.03, 912 427.57Q986.81 382.38, 1032 457.18Q1046.22 399.4, 1104 413.62Q1190 427.63, 1176 513.63Q1173.38 439.01, 1248 436.39Q1274.28 390.67, 1320 416.96Q1405.87 382.83, 1440 468.7Q1488.32 397.01, 1560 445.33z" fill="rgba(31, 103, 149, 1)"></path>
        <path d="M1464 560L0 560 L0 566.66Q39.9 534.56, 72 574.46Q89.82 472.28, 192 490.1Q258.38 436.48, 312 502.85Q380.89 451.75, 432 520.64Q475.75 492.38, 504 536.13Q524.15 484.28, 576 504.44Q646.07 454.5, 696 524.57Q742.88 499.45, 768 546.32Q837.28 495.6, 888 564.88Q893.23 498.11, 960 503.33Q1028 451.33, 1080 519.33Q1141.7 509.03, 1152 570.73Q1171.56 470.28, 1272 489.84Q1316.14 461.98, 1344 506.12Q1430.93 473.05, 1464 559.97z" fill="rgba(223, 223, 223, 1)"></path>
    </g>
    <defs>
        <mask id="SvgjsMask1834">
            <rect width="1440" height="560" fill="#ffffff"></rect>
        </mask>
        <linearGradient x1="50%" y1="100%" x2="50%" y2="0%" gradientUnits="userSpaceOnUse" id="SvgjsLinearGradient1835">
            <stop stop-color="rgba(19, 70, 124, 1)" offset="0.19"></stop>
            <stop stop-color="rgba(0, 0, 0, 1)" offset="1"></stop>
        </linearGradient>
    </defs>
</svg>