<svg xmlns="http://www.w3.org/2000/svg" version="1.1" xmlns:xlink="http://www.w3.org/1999/xlink" xmlns:svgjs="http://svgjs.com/svgjs" width="1440" height="560" preserveAspectRatio="none" viewBox="0 0 1440 560">
    <g mask="url(&quot;#SvgjsMask7941&quot;)" fill="none">
        <rect width="1440" height="560" x="0" y="0" fill="url(#SvgjsLinearGradient7942)"></rect>
        <path d="M1560 560L0 560 L0 358.18Q56.85 295.03, 120 351.88Q215.74 327.62, 240 423.35Q271.82 335.17, 360 366.99Q438.35 325.34, 480 403.68Q489.19 340.88, 552 350.07Q595.47 321.54, 624 365.02Q682.61 351.63, 696 410.24Q698.16 340.4, 768 342.57Q865.15 319.72, 888 416.87Q936.77 345.64, 1008 394.41Q1028.73 343.14, 1080 363.87Q1147.39 311.26, 1200 378.66Q1279.25 337.91, 1320 417.16Q1389.11 366.26, 1440 435.37Q1474.53 349.89, 1560 384.42z" fill="rgba(90, 83, 135, 1)"></path>
        <path d="M1512 560L0 560 L0 434.73Q83.76 398.49, 120 482.25Q147.86 438.11, 192 465.97Q252.31 454.28, 264 514.59Q282.33 412.93, 384 431.26Q454.24 381.5, 504 451.73Q524.14 399.87, 576 420.01Q622.57 394.58, 648 441.15Q726.93 400.08, 768 479.01Q813 452.01, 840 497.02Q850.67 435.69, 912 446.36Q937.02 399.38, 984 424.4Q1065.25 385.65, 1104 466.9Q1160.51 451.4, 1176 507.91Q1220.63 432.55, 1296 477.18Q1306.27 415.44, 1368 425.71Q1396.79 382.5, 1440 411.29Q1500.28 399.57, 1512 459.85z" fill="rgba(121, 141, 181, 1)"></path>
        <path d="M1536 560L0 560 L0 521.69Q19.26 468.96, 72 488.22Q139.84 436.06, 192 503.9Q266.24 458.13, 312 532.37Q370.58 518.95, 384 577.54Q413.62 535.16, 456 564.78Q483.71 520.49, 528 548.19Q551.02 499.21, 600 522.23Q684.5 486.73, 720 571.23Q764.47 543.7, 792 588.17Q811.01 487.18, 912 506.19Q937.79 459.98, 984 485.77Q1071.22 453, 1104 540.22Q1154.94 519.16, 1176 570.1Q1194.23 468.33, 1296 486.55Q1363.89 434.44, 1416 502.33Q1511.86 478.19, 1536 574.05z" fill="rgba(185, 176, 176, 1)"></path>
    </g>
    <defs>
        <mask id="SvgjsMask7941">
            <rect width="1440" height="560" fill="#ffffff"></rect>
        </mask>
        <linearGradient x1="50%" y1="0%" x2="50%" y2="100%" gradientUnits="userSpaceOnUse" id="SvgjsLinearGradient7942">
            <stop stop-color="rgba(43, 80, 136, 1)" offset="0.26"></stop>
            <stop stop-color="rgba(172, 61, 84, 1)" offset="0.79"></stop>
        </linearGradient>
    </defs>
</svg>