<svg xmlns="http://www.w3.org/2000/svg" version="1.1" xmlns:xlink="http://www.w3.org/1999/xlink" xmlns:svgjs="http://svgjs.com/svgjs" width="1440" height="560" preserveAspectRatio="none" viewBox="0 0 1440 560">
    <g mask="url(&quot;#SvgjsMask8465&quot;)" fill="none">
        <rect width="1440" height="560" x="0" y="0" fill="url(#SvgjsLinearGradient8466)"></rect>
        <path d="M1560 560L0 560 L0 395.91Q63.52 339.44, 120 402.96Q165.11 328.07, 240 373.18Q307.84 321.02, 360 388.86Q403.51 360.37, 432 403.88Q507.89 359.77, 552 435.66Q577.47 389.13, 624 414.6Q677.96 348.56, 744 402.53Q791.21 377.74, 816 424.95Q846.43 335.38, 936 365.81Q1002.47 312.28, 1056 378.75Q1139.1 341.85, 1176 424.95Q1198.4 327.35, 1296 349.75Q1341.24 322.99, 1368 368.23Q1411.22 339.45, 1440 382.67Q1510.66 333.33, 1560 403.99z" fill="rgba(255, 216, 223, 1)"></path>
        <path d="M1536 560L0 560 L0 495.41Q34.52 409.94, 120 444.46Q185.99 390.44, 240 456.43Q257.59 402.02, 312 419.62Q378.65 366.27, 432 432.92Q498.3 379.22, 552 445.51Q613.26 434.77, 624 496.03Q677.4 429.43, 744 482.83Q758.98 425.8, 816 440.78Q867.1 371.88, 936 422.97Q986.44 401.42, 1008 451.86Q1050.86 422.72, 1080 465.57Q1122.04 435.61, 1152 477.65Q1195.19 448.85, 1224 492.04Q1244.81 440.85, 1296 461.66Q1363.73 409.39, 1416 477.12Q1446.86 387.98, 1536 418.83z" fill="rgba(194, 223, 255, 1)"></path>
        <path d="M1560 560L0 560 L0 559.67Q3.11 490.77, 72 493.88Q137.46 439.34, 192 504.8Q278.9 471.7, 312 558.6Q350.76 477.36, 432 516.12Q500.99 465.11, 552 534.1Q592 454.1, 672 494.1Q719.01 469.12, 744 516.13Q833.48 485.61, 864 575.09Q913.68 504.77, 984 554.45Q1025.01 475.46, 1104 516.47Q1130.37 470.84, 1176 497.2Q1228.72 477.92, 1248 530.64Q1297.52 460.16, 1368 509.68Q1398.14 467.83, 1440 497.97Q1525.78 463.75, 1560 549.54z" fill="rgba(255, 255, 255, 1)"></path>
    </g>
    <defs>
        <mask id="SvgjsMask8465">
            <rect width="1440" height="560" fill="#ffffff"></rect>
        </mask>
        <linearGradient x1="50%" y1="0%" x2="50%" y2="100%" gradientUnits="userSpaceOnUse" id="SvgjsLinearGradient8466">
            <stop stop-color="rgba(176, 202, 237, 1)" offset="0.54"></stop>
            <stop stop-color="rgba(202, 174, 242, 1)" offset="0.79"></stop>
        </linearGradient>
    </defs>
</svg>