<?xml version="1.0" encoding="utf-8"?>
<!-- Generator: Adobe Illustrator 15.0.0, SVG Export Plug-In . SVG Version: 6.00 Build 0)  -->
<!DOCTYPE svg PUBLIC "-//W3C//DTD SVG 1.1//EN" "http://www.w3.org/Graphics/SVG/1.1/DTD/svg11.dtd">
<svg version="1.1" xmlns="http://www.w3.org/2000/svg" xmlns:xlink="http://www.w3.org/1999/xlink" x="0px" y="0px" width="600px"
	 height="1300px" viewBox="0 0 425 1555" enable-background="new 0 0 425 1555" xml:space="preserve">
<g id="Layer_1">
	<g id="plane_bgr_1_">
		<g>
			<defs>
				<polygon id="SVGID_1_" points="117.679,1513.391 306.618,1517.651 306.618,12.828 117.679,8.568 				"/>
			</defs>
			<defs>
				<polygon id="SVGID_2_" points="117.709,8.599 306.648,12.859 306.648,1517.682 117.709,1513.421 				"/>
			</defs>
			<clipPath id="SVGID_3_">
				<use xlink:href="#SVGID_1_"  overflow="visible"/>
			</clipPath>
			<clipPath id="SVGID_4_" clip-path="url(#SVGID_3_)">
				<use xlink:href="#SVGID_2_"  overflow="visible"/>
			</clipPath>
		</g>
		<g>
			<defs>
				<polygon id="SVGID_5_" points="117.679,1513.391 306.618,1517.651 306.618,12.828 117.679,8.568 				"/>
			</defs>
			<defs>
				<polygon id="SVGID_6_" points="117.709,8.599 306.648,12.859 306.648,1517.682 117.709,1513.421 				"/>
			</defs>
			<clipPath id="SVGID_7_">
				<use xlink:href="#SVGID_5_"  overflow="visible"/>
			</clipPath>
			<clipPath id="SVGID_8_" clip-path="url(#SVGID_7_)">
				<use xlink:href="#SVGID_6_"  overflow="visible"/>
			</clipPath>
		</g>
		<g>
			<defs>
				<polygon id="SVGID_9_" points="117.679,1513.391 306.618,1517.651 306.618,12.828 117.679,8.568 				"/>
			</defs>
			<defs>
				<path id="SVGID_10_" d="M129.277,205.999C159.904,98.42,195.553,27.213,212.396,27.213c16.682,0,51.769,72.851,83.127,178.786
					l0,0c1.061,4.11,1.597,8.338,1.597,12.583v1015.286l0,0c0,4.191-0.522,8.366-1.556,12.427
					c-41.024,161.16-68.746,253.247-83.168,253.247c-14.417,0-42.136-92.086-83.159-253.247l0,0
					c-1.033-4.062-1.557-8.236-1.557-12.427V218.582l0,0C127.681,214.337,128.217,210.108,129.277,205.999L129.277,205.999z"/>
			</defs>
			<defs>
				<polygon id="SVGID_11_" points="117.709,8.599 306.648,12.859 306.648,1517.682 117.709,1513.421 				"/>
			</defs>
			<clipPath id="SVGID_12_">
				<use xlink:href="#SVGID_9_"  overflow="visible"/>
			</clipPath>
			<clipPath id="SVGID_13_" clip-path="url(#SVGID_12_)">
				<use xlink:href="#SVGID_10_"  overflow="visible"/>
			</clipPath>
			<clipPath id="SVGID_14_" clip-path="url(#SVGID_13_)">
				<use xlink:href="#SVGID_11_"  overflow="visible"/>
			</clipPath>
			<rect x="125.161" y="-216.461" clip-path="url(#SVGID_14_)" fill="#F3F3F3" width="174.479" height="1728.32"/>
		</g>
		<g>
			<defs>
				<polygon id="SVGID_15_" points="117.679,1511.123 306.618,1515.383 307.323,10.561 118.383,6.3 				"/>
			</defs>
			<defs>
				<path id="SVGID_16_" d="M131.747,227.09L131.747,227.09v992.864c23.603,116.337,50.486,153.205,80.649,153.205
					c30.17,0,57.055-36.868,80.658-153.205V226.943c0,0,0-15.589-4.347-26.673c0,0-19.762-8.197-77.269-8.197
					c0,0-63.306,1.144-76.154,9.205C135.286,201.277,130.499,218.66,131.747,227.09z"/>
			</defs>
			<clipPath id="SVGID_17_">
				<use xlink:href="#SVGID_15_"  overflow="visible"/>
			</clipPath>
			<clipPath id="SVGID_18_" clip-path="url(#SVGID_17_)">
				<use xlink:href="#SVGID_16_"  overflow="visible"/>
			</clipPath>
			<rect x="130.488" y="107.848" clip-path="url(#SVGID_18_)" fill="#FFFFFF" width="166.344" height="1289.131"/>
		</g>
		<g>
			<defs>
				<rect id="SVGID_19_" x="117.679" y="8.819" width="188.939" height="1504.824"/>
			</defs>
			<clipPath id="SVGID_20_">
				<use xlink:href="#SVGID_19_"  overflow="visible"/>
			</clipPath>
		</g>
		<text transform="matrix(1 0 0 1 206.7627 735.1094)" fill="#424242" font-family="'SFUIText-Heavy'" font-size="8.0614"> </text>
	</g>
	<g>
		<path fill="#424242" d="M148.129,1518.715c-0.599-0.599-0.898-1.324-0.898-2.176c0-0.849,0.299-1.573,0.898-2.172
			s1.323-0.898,2.172-0.898s1.573,0.299,2.172,0.898s0.898,1.323,0.898,2.172c0,0.852-0.299,1.577-0.898,2.176
			s-1.323,0.898-2.172,0.898S148.728,1519.314,148.129,1518.715z M151.988,1518.23c0.463-0.466,0.695-1.03,0.695-1.691
			s-0.232-1.224-0.695-1.688s-1.026-0.695-1.688-0.695s-1.224,0.232-1.688,0.695s-0.695,1.026-0.695,1.688s0.232,1.225,0.695,1.691
			c0.463,0.463,1.026,0.695,1.688,0.695S151.525,1518.694,151.988,1518.23z M150.875,1516.176c-0.021-0.138-0.077-0.246-0.168-0.324
			c-0.091-0.081-0.205-0.121-0.34-0.121c-0.177,0-0.316,0.07-0.418,0.211c-0.099,0.143-0.148,0.341-0.148,0.594
			c0,0.26,0.049,0.461,0.148,0.602s0.238,0.211,0.418,0.211c0.294,0,0.463-0.139,0.508-0.418h0.836
			c-0.031,0.346-0.167,0.62-0.406,0.82c-0.242,0.198-0.557,0.297-0.945,0.297c-0.456,0-0.814-0.135-1.074-0.406
			c-0.26-0.268-0.391-0.637-0.391-1.105c0-0.463,0.13-0.83,0.391-1.098c0.263-0.271,0.619-0.406,1.066-0.406
			c0.383,0,0.698,0.104,0.945,0.313c0.245,0.206,0.383,0.483,0.414,0.832H150.875z"/>
		<path fill="#424242" d="M155.4,1515.219c0-0.56,0.201-1.013,0.602-1.359s0.928-0.52,1.582-0.52c0.63,0,1.139,0.154,1.527,0.461
			c0.385,0.307,0.578,0.711,0.578,1.211c0,0.313-0.103,0.624-0.309,0.934c-0.206,0.313-0.559,0.691-1.059,1.137l-0.93,0.855v0.074
			h2.375v1.117h-4.285v-0.957l1.781-1.676c0.412-0.38,0.689-0.666,0.832-0.855c0.138-0.185,0.207-0.361,0.207-0.527
			c0-0.208-0.07-0.375-0.211-0.5c-0.141-0.127-0.327-0.191-0.559-0.191c-0.242,0-0.439,0.074-0.59,0.223
			c-0.154,0.148-0.23,0.338-0.23,0.57v0.027H155.4V1515.219z"/>
		<path fill="#424242" d="M162.617,1518.488c-0.422-0.529-0.633-1.259-0.633-2.191c0-0.927,0.213-1.654,0.641-2.18
			c0.419-0.518,0.995-0.777,1.727-0.777s1.307,0.259,1.727,0.777c0.427,0.526,0.641,1.254,0.641,2.184
			c0,0.927-0.212,1.656-0.637,2.188c-0.422,0.529-0.999,0.793-1.73,0.793C163.617,1519.281,163.039,1519.017,162.617,1518.488z
			 M165.015,1517.707c0.167-0.331,0.25-0.801,0.25-1.41c0-0.604-0.083-1.068-0.25-1.391c-0.162-0.31-0.383-0.465-0.664-0.465
			s-0.501,0.155-0.66,0.465c-0.167,0.323-0.25,0.787-0.25,1.391c0,0.609,0.083,1.08,0.25,1.41c0.159,0.315,0.379,0.473,0.66,0.473
			S164.854,1518.022,165.015,1517.707z"/>
		<path fill="#424242" d="M170.353,1514.785h-0.074l-1.359,0.918v-1.234l1.434-0.977h1.434v5.637h-1.434V1514.785z"/>
		<path fill="#424242" d="M175.132,1518.824c-0.443-0.305-0.664-0.705-0.664-1.199c0-0.346,0.116-0.651,0.348-0.914
			c0.234-0.26,0.545-0.436,0.934-0.527v-0.074c-0.318-0.068-0.573-0.213-0.766-0.438c-0.193-0.221-0.289-0.48-0.289-0.777
			c0-0.451,0.205-0.823,0.613-1.117c0.409-0.292,0.931-0.438,1.566-0.438s1.158,0.146,1.566,0.438
			c0.409,0.294,0.613,0.667,0.613,1.117c0,0.297-0.096,0.556-0.289,0.777c-0.193,0.224-0.448,0.37-0.766,0.438v0.074
			c0.385,0.07,0.695,0.236,0.93,0.496c0.237,0.263,0.355,0.574,0.355,0.934c0,0.498-0.223,0.9-0.668,1.207
			c-0.443,0.307-1.025,0.461-1.746,0.461C176.151,1519.281,175.572,1519.129,175.132,1518.824z M177.526,1518.059
			c0.167-0.146,0.25-0.334,0.25-0.566s-0.083-0.42-0.25-0.566c-0.169-0.146-0.387-0.219-0.652-0.219
			c-0.268,0-0.486,0.073-0.652,0.219c-0.169,0.146-0.254,0.334-0.254,0.566s0.084,0.42,0.254,0.566
			c0.167,0.143,0.384,0.215,0.652,0.215S177.36,1518.202,177.526,1518.059z M177.425,1515.531c0.143-0.133,0.215-0.301,0.215-0.504
			s-0.072-0.373-0.215-0.508c-0.146-0.133-0.33-0.199-0.551-0.199c-0.224,0-0.409,0.066-0.555,0.199
			c-0.143,0.135-0.215,0.305-0.215,0.508s0.073,0.371,0.219,0.504s0.33,0.199,0.551,0.199S177.279,1515.664,177.425,1515.531z"/>
		<path fill="#424242" d="M186.19,1519.129v-4.484h-1.625v-1.152h4.684v1.152h-1.629v4.484H186.19z"/>
		<path fill="#424242" d="M192.942,1519.129h-1.434v-5.637h2.48c0.659,0,1.174,0.164,1.547,0.492
			c0.372,0.331,0.559,0.787,0.559,1.367c0,0.354-0.084,0.672-0.25,0.953c-0.172,0.294-0.409,0.508-0.711,0.641l1.125,2.184h-1.61
			l-0.965-1.973h-0.742V1519.129z M192.942,1516.145h0.848c0.263,0,0.469-0.069,0.617-0.207s0.223-0.33,0.223-0.574
			c0-0.24-0.077-0.431-0.23-0.574s-0.358-0.215-0.613-0.215h-0.844V1516.145z"/>
		<path fill="#424242" d="M198.475,1519.129v-5.637h1.434v5.637H198.475z"/>
		<path fill="#424242" d="M204.945,1513.492c0.606,0,1.097,0.182,1.469,0.547c0.375,0.365,0.563,0.849,0.563,1.453
			c0,0.596-0.196,1.077-0.59,1.441c-0.388,0.362-0.897,0.543-1.527,0.543h-0.949v1.652h-1.434v-5.637H204.945z M203.91,1516.395
			h0.648c0.308,0,0.546-0.077,0.715-0.23s0.254-0.376,0.254-0.668c0-0.294-0.085-0.52-0.254-0.676
			c-0.164-0.151-0.399-0.227-0.707-0.227h-0.656V1516.395z"/>
		<path fill="#424242" d="M212.514,1517.891h-1.84l-0.363,1.238h-1.422l1.891-5.637h1.754l1.895,5.637h-1.563L212.514,1517.891z
			 M210.947,1516.859h1.297l-0.605-2.098h-0.074L210.947,1516.859z"/>
		<path fill="#424242" d="M218.979,1513.488c0.839,0,1.488,0.241,1.949,0.723c0.458,0.482,0.688,1.163,0.688,2.043
			c0,0.924-0.228,1.635-0.684,2.133c-0.453,0.495-1.104,0.742-1.953,0.742h-2.367v-5.641H218.979z M218.046,1517.977h0.676
			c0.466,0,0.821-0.143,1.066-0.43s0.367-0.708,0.367-1.266c0-0.523-0.126-0.928-0.379-1.215c-0.25-0.284-0.602-0.426-1.055-0.426
			h-0.676V1517.977z"/>
		<path fill="#424242" d="M225.356,1519.129l-1.816-5.637h1.645l1.082,4.148h0.074l1.051-4.148h1.547l-1.77,5.637H225.356z"/>
		<path fill="#424242" d="M231.128,1519.129v-5.637h1.434v5.637H231.128z"/>
		<path fill="#424242" d="M236.251,1517.523c0.019,0.206,0.121,0.369,0.309,0.488c0.19,0.123,0.434,0.184,0.73,0.184
			c0.269,0,0.485-0.059,0.652-0.176s0.25-0.268,0.25-0.453c0-0.156-0.067-0.281-0.203-0.375c-0.136-0.091-0.364-0.169-0.688-0.234
			l-0.742-0.148c-1.042-0.198-1.563-0.746-1.563-1.645c0-0.552,0.204-0.994,0.613-1.324c0.406-0.333,0.949-0.5,1.629-0.5
			c0.659,0,1.198,0.163,1.617,0.488c0.414,0.326,0.628,0.749,0.641,1.27h-1.324c-0.016-0.198-0.109-0.361-0.281-0.488
			c-0.169-0.125-0.38-0.188-0.633-0.188s-0.454,0.055-0.605,0.164c-0.153,0.112-0.23,0.262-0.23,0.449
			c0,0.292,0.281,0.494,0.844,0.605l0.727,0.141c0.558,0.107,0.965,0.291,1.223,0.551c0.261,0.26,0.391,0.615,0.391,1.063
			c0,0.588-0.211,1.049-0.633,1.383c-0.422,0.336-1.003,0.504-1.742,0.504c-0.714,0-1.28-0.158-1.699-0.473
			c-0.422-0.315-0.638-0.744-0.648-1.285H236.251z"/>
		<path fill="#424242" d="M246.467,1514.137c0.5,0.534,0.75,1.258,0.75,2.172c0,0.917-0.25,1.642-0.75,2.176
			c-0.5,0.531-1.175,0.797-2.023,0.797c-0.854,0-1.53-0.266-2.027-0.797c-0.503-0.534-0.754-1.259-0.754-2.176
			c0-0.914,0.253-1.638,0.758-2.172c0.5-0.531,1.175-0.797,2.023-0.797S245.967,1513.605,246.467,1514.137z M243.486,1515.012
			c-0.242,0.323-0.363,0.755-0.363,1.297c0,0.544,0.12,0.978,0.359,1.301s0.56,0.484,0.961,0.484c0.398,0,0.718-0.162,0.957-0.484
			s0.359-0.756,0.359-1.301c0-0.542-0.121-0.974-0.363-1.297c-0.239-0.323-0.558-0.484-0.953-0.484
			C244.045,1514.527,243.726,1514.689,243.486,1515.012z"/>
		<path fill="#424242" d="M250.953,1519.129h-1.434v-5.637H252c0.659,0,1.175,0.164,1.547,0.492
			c0.372,0.331,0.559,0.787,0.559,1.367c0,0.354-0.083,0.672-0.25,0.953c-0.172,0.294-0.409,0.508-0.711,0.641l1.125,2.184h-1.609
			l-0.965-1.973h-0.742V1519.129z M250.953,1516.145h0.848c0.263,0,0.469-0.069,0.617-0.207s0.223-0.33,0.223-0.574
			c0-0.24-0.077-0.431-0.23-0.574s-0.358-0.215-0.613-0.215h-0.844V1516.145z"/>
		<path fill="#424242" d="M263.516,1519.129h-3.828v-5.637h1.434v4.453h2.395V1519.129z"/>
		<path fill="#424242" d="M269.626,1519.129h-3.828v-5.637h1.434v4.453h2.395V1519.129z"/>
		<path fill="#424242" d="M272.374,1518.484c-0.487-0.531-0.73-1.256-0.73-2.176s0.243-1.645,0.73-2.176
			c0.484-0.529,1.149-0.793,1.996-0.793c0.708,0,1.304,0.211,1.785,0.633c0.479,0.422,0.729,0.952,0.75,1.59h-1.379
			c-0.036-0.307-0.161-0.555-0.375-0.742c-0.214-0.19-0.474-0.285-0.781-0.285c-0.394,0-0.702,0.158-0.926,0.473
			c-0.227,0.315-0.34,0.748-0.34,1.297c0,0.552,0.113,0.987,0.34,1.305s0.536,0.477,0.93,0.477c0.31,0,0.57-0.091,0.781-0.273
			c0.211-0.185,0.337-0.428,0.379-0.73h1.375c-0.023,0.646-0.272,1.173-0.746,1.582c-0.474,0.412-1.071,0.617-1.793,0.617
			C273.526,1519.281,272.861,1519.016,272.374,1518.484z"/>
	</g>
	<path id="nose_mobile" fill-rule="evenodd" clip-rule="evenodd" fill="#FFFFFF" d="M135.286,201.277
		c0,0,19.729-94.325,76.863-92.76c0,0,54.35-5.322,76.56,91.752"/>
	<g id="wings_back">
		<path fill="#F3F3F3" d="M119.555,1395.683l21.874-17.936l15.931-29.042c0,0,20.861,80.4,38.365,124.797
			c0,0-16.155,2.303-24.356,6.555l-51.813,24.007V1395.683z"/>
		<path fill="#F3F3F3" d="M305.586,1395.683l-21.873-17.936l-15.932-29.042c0,0-20.759,79.696-38.37,124.797
			c0,0,16.156,2.303,24.358,6.555l51.816,24.007V1395.683z"/>
	</g>
	<g>
		<g id="wings_4_">
			<polygon fill="#E5E5E5" points="131.734,558.043 10.873,601.669 10.873,895.661 131.734,859.759 			"/>
		</g>
		<g id="wings_2_">
			<polygon fill="#E5E5E5" points="293.261,558.043 414.129,601.669 414.129,895.661 293.261,859.759 			"/>
		</g>
	</g>
</g>
<g id="labels">
	<g>
		<path fill="#333333" d="M195.752,171.937v-6.341h4.315v1.296h-2.703v1.446h2.452v1.235h-2.452v2.364H195.752z"/>
		<path fill="#333333" d="M202.6,171.937v-6.341h1.613v6.341H202.6z"/>
		<path fill="#333333" d="M208.67,171.937h-1.613v-6.341h2.791c0.74,0,1.32,0.185,1.74,0.554c0.418,0.372,0.628,0.885,0.628,1.538
			c0,0.398-0.094,0.756-0.281,1.072c-0.193,0.331-0.46,0.571-0.8,0.721l1.266,2.457h-1.811l-1.085-2.219h-0.835V171.937z
			 M208.67,168.58h0.954c0.296,0,0.527-0.078,0.694-0.233s0.251-0.371,0.251-0.646c0-0.27-0.087-0.485-0.26-0.646
			s-0.403-0.242-0.689-0.242h-0.95V168.58z"/>
		<path fill="#333333" d="M216.111,170.131c0.021,0.231,0.137,0.415,0.348,0.549c0.213,0.138,0.487,0.207,0.821,0.207
			c0.302,0,0.546-0.066,0.734-0.198c0.187-0.132,0.281-0.302,0.281-0.51c0-0.176-0.077-0.316-0.229-0.422
			c-0.153-0.103-0.411-0.19-0.773-0.264l-0.835-0.167c-1.173-0.223-1.758-0.839-1.758-1.85c0-0.621,0.229-1.118,0.689-1.49
			c0.457-0.375,1.068-0.563,1.833-0.563c0.74,0,1.347,0.183,1.819,0.549c0.466,0.366,0.705,0.842,0.721,1.428h-1.49
			c-0.018-0.223-0.123-0.406-0.316-0.549c-0.19-0.141-0.428-0.211-0.712-0.211s-0.512,0.062-0.681,0.185
			c-0.174,0.126-0.26,0.294-0.26,0.505c0,0.328,0.316,0.555,0.949,0.681l0.817,0.158c0.627,0.12,1.086,0.327,1.376,0.62
			c0.292,0.293,0.439,0.691,0.439,1.195c0,0.662-0.237,1.181-0.712,1.556c-0.475,0.378-1.129,0.567-1.96,0.567
			c-0.804,0-1.44-0.177-1.912-0.532c-0.475-0.354-0.718-0.836-0.729-1.446H216.111z"/>
		<path fill="#333333" d="M223.935,171.937v-5.045h-1.828v-1.296h5.27v1.296h-1.833v5.045H223.935z"/>
	</g>
	<g>
		<!-- <path fill="#333333" d="M172.669,422.855h-4.346v-6.341h4.346v1.296h-2.733v1.266h2.571v1.187h-2.571v1.297h2.733V422.855z"/> -->
		<!-- <path fill="#333333" d="M175.918,422.131c-0.548-0.598-0.822-1.414-0.822-2.448s0.274-1.85,0.822-2.447
			c0.545-0.595,1.293-0.893,2.246-0.893c0.797,0,1.466,0.237,2.008,0.712c0.539,0.475,0.82,1.071,0.844,1.789h-1.551
			c-0.041-0.346-0.182-0.624-0.422-0.835c-0.24-0.214-0.533-0.321-0.879-0.321c-0.442,0-0.79,0.178-1.042,0.532
			c-0.255,0.354-0.382,0.841-0.382,1.459c0,0.621,0.127,1.11,0.382,1.468s0.604,0.536,1.046,0.536c0.349,0,0.642-0.103,0.879-0.308
			c0.237-0.208,0.379-0.482,0.426-0.822h1.547c-0.026,0.727-0.306,1.32-0.839,1.78c-0.533,0.463-1.206,0.694-2.017,0.694
			C177.214,423.027,176.466,422.729,175.918,422.131z"/>
		<path fill="#333333" d="M188.641,417.239c0.563,0.601,0.844,1.415,0.844,2.443c0,1.031-0.281,1.848-0.844,2.448
			c-0.563,0.598-1.321,0.896-2.276,0.896c-0.961,0-1.721-0.299-2.281-0.896c-0.565-0.601-0.848-1.417-0.848-2.448
			c0-1.028,0.284-1.843,0.853-2.443c0.563-0.598,1.321-0.896,2.276-0.896S188.079,416.642,188.641,417.239z M185.288,418.224
			c-0.272,0.363-0.409,0.85-0.409,1.459c0,0.612,0.135,1.101,0.404,1.464s0.63,0.545,1.081,0.545c0.448,0,0.807-0.182,1.077-0.545
			s0.404-0.852,0.404-1.464c0-0.609-0.136-1.096-0.409-1.459c-0.27-0.363-0.627-0.545-1.072-0.545
			C185.917,417.679,185.558,417.86,185.288,418.224z"/>
		<path fill="#333333" d="M192.03,422.855v-6.341h1.288l2.641,3.568h0.083v-3.568h1.529v6.341h-1.279l-2.65-3.604h-0.083v3.604
			H192.03z"/>
		<path fill="#333333" d="M205.522,417.239c0.563,0.601,0.844,1.415,0.844,2.443c0,1.031-0.281,1.848-0.844,2.448
			c-0.563,0.598-1.321,0.896-2.276,0.896c-0.961,0-1.721-0.299-2.281-0.896c-0.565-0.601-0.848-1.417-0.848-2.448
			c0-1.028,0.284-1.843,0.853-2.443c0.563-0.598,1.321-0.896,2.276-0.896S204.959,416.642,205.522,417.239z M202.169,418.224
			c-0.272,0.363-0.409,0.85-0.409,1.459c0,0.612,0.135,1.101,0.404,1.464s0.63,0.545,1.081,0.545c0.448,0,0.807-0.182,1.077-0.545
			s0.404-0.852,0.404-1.464c0-0.609-0.136-1.096-0.409-1.459c-0.27-0.363-0.627-0.545-1.072-0.545
			C202.797,417.679,202.438,417.86,202.169,418.224z"/>
		<path fill="#333333" d="M208.912,422.855v-6.341h1.902l1.538,3.876h0.084l1.533-3.876h1.903v6.341h-1.49v-4.003h-0.079
			l-1.41,3.516h-0.998l-1.415-3.516h-0.079v4.003H208.912z"/>
		<path fill="#333333" d="M220.479,422.855v-2.18l-2.188-4.161h1.719l1.234,2.588h0.084l1.226-2.588h1.719l-2.185,4.161v2.18
			H220.479z"/>
		<path fill="#333333" d="M233.022,416.515c0.682,0,1.232,0.205,1.652,0.615c0.422,0.41,0.633,0.955,0.633,1.635
			c0,0.671-0.222,1.211-0.664,1.621c-0.437,0.407-1.01,0.611-1.718,0.611h-1.068v1.858h-1.612v-6.341H233.022z M231.857,419.779
			h0.729c0.346,0,0.613-0.086,0.805-0.259c0.189-0.173,0.285-0.424,0.285-0.752c0-0.331-0.096-0.584-0.285-0.76
			c-0.185-0.17-0.45-0.255-0.796-0.255h-0.738V419.779z"/>
		<path fill="#333333" d="M242.146,422.855h-4.307v-6.341h1.612v5.01h2.694V422.855z"/>
		<path fill="#333333" d="M246.287,420.496c0,0.369,0.097,0.656,0.29,0.861c0.195,0.208,0.473,0.312,0.83,0.312
			s0.633-0.104,0.826-0.312c0.193-0.202,0.29-0.489,0.29-0.861v-3.981h1.613v4.152c0,0.712-0.25,1.283-0.747,1.714
			c-0.499,0.431-1.159,0.646-1.982,0.646s-1.485-0.216-1.986-0.646c-0.498-0.431-0.747-1.002-0.747-1.714v-4.152h1.613V420.496z"/>
		<path fill="#333333" d="M254.246,421.05c0.021,0.231,0.137,0.414,0.348,0.549c0.213,0.138,0.487,0.207,0.821,0.207
			c0.302,0,0.546-0.066,0.734-0.198c0.187-0.132,0.281-0.302,0.281-0.51c0-0.176-0.077-0.316-0.229-0.422
			c-0.153-0.103-0.411-0.19-0.773-0.264l-0.835-0.167c-1.173-0.223-1.758-0.839-1.758-1.85c0-0.621,0.229-1.118,0.689-1.49
			c0.457-0.375,1.068-0.563,1.833-0.563c0.74,0,1.347,0.184,1.819,0.55c0.466,0.366,0.705,0.842,0.721,1.428h-1.49
			c-0.018-0.223-0.123-0.405-0.316-0.549c-0.19-0.141-0.428-0.211-0.712-0.211s-0.512,0.062-0.681,0.185
			c-0.174,0.126-0.26,0.294-0.26,0.505c0,0.328,0.316,0.556,0.949,0.682l0.817,0.158c0.627,0.12,1.086,0.326,1.376,0.619
			c0.292,0.293,0.439,0.691,0.439,1.195c0,0.662-0.237,1.181-0.712,1.556c-0.475,0.378-1.129,0.567-1.96,0.567
			c-0.804,0-1.44-0.178-1.912-0.532c-0.475-0.354-0.718-0.836-0.729-1.445H254.246z"/> -->
	</g>
	<g>
		<path fill="#333333" d="M188.542,741.933h-4.346v-6.341h4.346v1.296h-2.733v1.266h2.571v1.187h-2.571v1.296h2.733V741.933z"/>
		<path fill="#333333" d="M191.79,741.208c-0.548-0.598-0.822-1.414-0.822-2.448s0.274-1.85,0.822-2.448
			c0.545-0.595,1.293-0.892,2.246-0.892c0.797,0,1.466,0.237,2.008,0.712c0.539,0.475,0.82,1.071,0.844,1.789h-1.551
			c-0.041-0.346-0.182-0.624-0.422-0.835c-0.24-0.214-0.533-0.321-0.879-0.321c-0.442,0-0.79,0.177-1.042,0.532
			c-0.255,0.354-0.382,0.841-0.382,1.459c0,0.621,0.127,1.11,0.382,1.468s0.604,0.536,1.046,0.536c0.349,0,0.642-0.103,0.879-0.308
			c0.237-0.208,0.379-0.482,0.426-0.822h1.547c-0.026,0.727-0.306,1.32-0.839,1.78c-0.533,0.463-1.206,0.694-2.017,0.694
			C193.086,742.104,192.338,741.806,191.79,741.208z"/>
		<path fill="#333333" d="M204.513,736.317c0.563,0.601,0.844,1.415,0.844,2.443c0,1.031-0.281,1.847-0.844,2.448
			c-0.563,0.598-1.321,0.896-2.276,0.896c-0.961,0-1.721-0.299-2.281-0.896c-0.565-0.601-0.848-1.417-0.848-2.448
			c0-1.028,0.284-1.843,0.853-2.443c0.563-0.598,1.321-0.896,2.276-0.896S203.951,735.719,204.513,736.317z M201.16,737.301
			c-0.272,0.363-0.409,0.85-0.409,1.459c0,0.612,0.135,1.1,0.404,1.463s0.63,0.545,1.081,0.545c0.448,0,0.807-0.182,1.077-0.545
			s0.404-0.851,0.404-1.463c0-0.609-0.136-1.096-0.409-1.459c-0.27-0.363-0.627-0.545-1.072-0.545
			C201.789,736.756,201.43,736.938,201.16,737.301z"/>
		<path fill="#333333" d="M207.902,741.933v-6.341h1.288l2.641,3.568h0.084v-3.568h1.53v6.341h-1.28l-2.649-3.604h-0.084v3.604
			H207.902z"/>
		<path fill="#333333" d="M221.396,736.317c0.563,0.601,0.844,1.415,0.844,2.443c0,1.031-0.281,1.847-0.844,2.448
			c-0.563,0.598-1.322,0.896-2.276,0.896c-0.962,0-1.722-0.299-2.281-0.896c-0.565-0.601-0.848-1.417-0.848-2.448
			c0-1.028,0.283-1.843,0.853-2.443c0.563-0.598,1.32-0.896,2.276-0.896C220.073,735.42,220.833,735.719,221.396,736.317z
			 M218.042,737.301c-0.272,0.363-0.408,0.85-0.408,1.459c0,0.612,0.134,1.1,0.404,1.463c0.269,0.363,0.629,0.545,1.081,0.545
			c0.448,0,0.807-0.182,1.076-0.545s0.404-0.851,0.404-1.463c0-0.609-0.136-1.096-0.408-1.459c-0.271-0.363-0.628-0.545-1.072-0.545
			C218.671,736.756,218.312,736.938,218.042,737.301z"/>
		<path fill="#333333" d="M224.784,741.933v-6.341h1.902l1.538,3.876h0.084l1.533-3.876h1.903v6.341h-1.49v-4.003h-0.079
			l-1.41,3.516h-0.998l-1.415-3.516h-0.079v4.003H224.784z"/>
		<path fill="#333333" d="M236.351,741.933v-2.18l-2.188-4.162h1.719l1.234,2.588h0.084l1.226-2.588h1.719l-2.185,4.162v2.18
			H236.351z"/>
	</g>
</g>
<g id="Layer_10" opacity="0.36">
	<g>
		<!-- <defs>
			<path id="SVGID_21_" d="M132.67,432.981h66.976c0.52,0,0.939,0.42,0.939,0.939V618.82c0,0.519-0.42,0.939-0.939,0.939h-66.978
				c-0.519,0-0.939-0.421-0.939-0.939l0.002-184.899c0-0.519,0.845-0.939,1.364-0.939H132.67z"/>
		</defs>
		<use xlink:href="#SVGID_21_"  overflow="visible" fill-rule="evenodd" clip-rule="evenodd" fill="#2DB4D0"/> -->
		<clipPath id="SVGID_22_">
			<use xlink:href="#SVGID_21_"  overflow="visible"/>
		</clipPath>
	</g>
	<g>
		<!-- <defs>
			<path id="SVGID_23_" d="M225.113,432.981h66.979c0.52,0,0.939,0.42,0.939,0.939V618.82c0,0.519-0.42,0.939-0.939,0.939h-66.981
				c-0.52,0-0.939-0.421-0.939-0.939l0.002-184.899c0-0.519,0.846-0.939,1.364-0.939H225.113z"/>
		</defs>
		<use xlink:href="#SVGID_23_"  overflow="visible" fill-rule="evenodd" clip-rule="evenodd" fill="#2DB4D0"/> -->
		<clipPath id="SVGID_24_">
			<use xlink:href="#SVGID_23_"  overflow="visible"/>
		</clipPath>
	</g>
	<g>
		<!-- <defs>
			<path id="SVGID_25_" d="M132.67,658.765h66.976c0.52,0,0.939,0.42,0.939,0.939v72.007c0,0.519-0.42,0.939-0.939,0.939h-66.978
				c-0.519,0-0.939-0.42-0.939-0.939l0.002-72.007c0-0.519,0.845-0.939,1.364-0.939H132.67z"/>
		</defs>
		<use xlink:href="#SVGID_25_"  overflow="visible" fill-rule="evenodd" clip-rule="evenodd" fill="#2DB4D0"/> -->
		<clipPath id="SVGID_26_">
			<use xlink:href="#SVGID_25_"  overflow="visible"/>
		</clipPath>
	</g>
	<g>
		<!-- <defs>
			<path id="SVGID_27_" d="M225.113,658.765h66.979c0.52,0,0.939,0.42,0.939,0.939v72.007c0,0.519-0.42,0.939-0.939,0.939h-66.981
				c-0.52,0-0.939-0.42-0.939-0.939l0.002-72.007c0-0.519,0.846-0.939,1.364-0.939H225.113z"/>
		</defs>
		<use xlink:href="#SVGID_27_"  overflow="visible" fill-rule="evenodd" clip-rule="evenodd" fill="#2DB4D0"/> -->
		<clipPath id="SVGID_28_">
			<use xlink:href="#SVGID_27_"  overflow="visible"/>
		</clipPath>
	</g>
</g>
<g id="seats">
	
	
</g>
</svg>
